<svg width="23" height="23" viewBox="0 0 23 23" fill="none" xmlns="http://www.w3.org/2000/svg">
<path d="M22.2496 10.893C22.7326 11.5125 23 12.2717 23 13.0615C23 14.3146 22.2784 15.5008 21.1169 16.1622C20.8179 16.3325 20.4774 16.4221 20.1308 16.4218H13.2365L13.409 19.8518C13.4493 20.6807 13.1474 21.4678 12.5609 22.0678C12.273 22.3636 11.9258 22.5989 11.5406 22.7592C11.1554 22.9196 10.7404 23.0015 10.3212 23C8.82625 23 7.50375 22.0232 7.107 20.6249L4.63737 11.9451H0.92C0.411125 11.9451 0 11.546 0 11.052V0.893095C0 0.399101 0.411125 0 0.92 0H18.2074C18.4719 0 18.7306 0.0502377 18.9692 0.150711C20.3377 0.717268 21.2204 2.01505 21.2204 3.45516C21.2204 3.80682 21.1686 4.15289 21.0651 4.4878C21.5481 5.10739 21.8155 5.86652 21.8155 6.65635C21.8155 7.008 21.7638 7.35408 21.6603 7.68899C22.1433 8.30857 22.4106 9.0677 22.4106 9.85753C22.4049 10.2092 22.3531 10.5581 22.2496 10.893ZM2.07 2.00946V9.93568H4.39875V2.00946H2.07ZM20.3665 11.8614L19.7369 11.3311L20.1365 10.6222C20.2682 10.3887 20.3364 10.1265 20.3349 9.86032C20.3349 9.39982 20.1279 8.96165 19.7714 8.66023L19.1418 8.12995L19.5414 7.42106C19.673 7.18754 19.7413 6.92534 19.7397 6.65914C19.7397 6.19864 19.5328 5.76046 19.1763 5.45904L18.5466 4.92877L18.9463 4.21987C19.0779 3.98636 19.1462 3.72415 19.1446 3.45795C19.1446 2.83279 18.7651 2.26902 18.1786 2.01225H6.23875V10.025L9.09937 20.0863C9.17314 20.3441 9.33148 20.5717 9.55041 20.7343C9.76935 20.897 10.0369 20.986 10.3126 20.9877C10.5311 20.9877 10.7467 20.9263 10.9192 20.8007C11.2039 20.5942 11.3562 20.2816 11.339 19.9495L11.063 14.4123H20.102C20.6138 14.1081 20.93 13.5946 20.93 13.0615C20.93 12.601 20.723 12.1656 20.3665 11.8614Z" fill="#FF3F3F"/>
</svg>
